<?xml version="1.0" encoding="utf-8"?>
<!-- Generator: Adobe Illustrator 27.0.1, SVG Export Plug-In . SVG Version: 6.00 Build 0)  -->
<svg version="1.1" xmlns="http://www.w3.org/2000/svg" xmlns:xlink="http://www.w3.org/1999/xlink" x="0px" y="0px"
	 viewBox="0 0 180 180" style="enable-background:new 0 0 180 180;" xml:space="preserve">
<style type="text/css">
	.st0{fill:#CD1A1A;}
	.st1{fill:none;stroke:#CD1A1A;stroke-width:12;stroke-miterlimit:10;}
</style>
<g id="download-icon">
	<path class="st0" d="M106,70V47.8c0-3-2.4-5.4-5.4-5.4H81.1c-3,0-5.4,2.4-5.4,5.4V70H64.9c-4.5,0-7,5.2-4.2,8.8L72.2,93l14.4,17.8
		c2.2,2.7,6.2,2.7,8.4,0L109.5,93L121,78.8c2.9-3.5,0.3-8.8-4.2-8.8H106L106,70z"/>
	<path class="st0" d="M120.6,106.5v4.3c0,2.1-1.4,3.9-3.2,3.9H64.2c-1.7,0-3.2-1.7-3.2-3.9v-4.3c0-2.1-1.4-3.9-3.2-3.9h-6.1
		c-1.7,0-3.2,1.7-3.2,3.9v18.2c0,2.1,1.4,3.9,3.2,3.9h78.1c1.7,0,3.2-1.7,3.2-3.9v-18.2c0-2.1-1.4-3.9-3.2-3.9h-6.1
		C122,102.7,120.6,104.4,120.6,106.5z"/>
</g>
<g id="circle">
	<circle class="st1" cx="90" cy="90" r="82.9"/>
</g>
</svg>
