<?xml version="1.0" encoding="utf-8"?>
<!-- Generator: Adobe Illustrator 27.0.1, SVG Export Plug-In . SVG Version: 6.00 Build 0)  -->
<svg version="1.1" xmlns="http://www.w3.org/2000/svg" xmlns:xlink="http://www.w3.org/1999/xlink" x="0px" y="0px"
	 viewBox="0 0 180 180" style="enable-background:new 0 0 180 180;" xml:space="preserve">
<style type="text/css">
	.st0{fill:#CD1A1A;}
	.st1{fill:none;stroke:#CD1A1A;stroke-width:12;stroke-miterlimit:10;}
</style>
<g id="format_icon">
	<path class="st0" d="M132,41.3H48c-3.3,0-5.9,2.8-5.9,6.3v86.7c0,3.5,2.7,6.3,5.9,6.3H132c3.3,0,5.9-2.8,5.9-6.3V47.7
		C137.9,44.2,135.3,41.3,132,41.3z M63,129.4c0,1.4-1.1,2.5-2.3,2.5H50.3c-1.3,0-2.3-1.1-2.3-2.5v-11.1c0-1.4,1-2.5,2.3-2.5h10.4
		c1.3,0,2.3,1.1,2.3,2.5V129.4L63,129.4z M63,96.6c0,1.4-1.1,2.5-2.3,2.5H50.3c-1.3,0-2.3-1.1-2.3-2.5V85.4c0-1.4,1-2.5,2.3-2.5
		h10.4c1.3,0,2.3,1.1,2.3,2.5C63,85.4,63,96.6,63,96.6z M63,63.7c0,1.4-1.1,2.5-2.3,2.5H50.3c-1.3,0-2.3-1.1-2.3-2.5V52.6
		c0-1.4,1-2.5,2.3-2.5h10.4c1.3,0,2.3,1.1,2.3,2.5C63,52.6,63,63.7,63,63.7z M111.4,129.4c0,1.4-1.1,2.5-2.3,2.5H70.9
		c-1.3,0-2.3-1.1-2.3-2.5V98.2c0-1.4,1-2.5,2.3-2.5h38.2c1.3,0,2.3,1.1,2.3,2.5V129.4z M111.4,83.8c0,1.4-1.1,2.5-2.3,2.5H70.9
		c-1.3,0-2.3-1.1-2.3-2.5V52.6c0-1.4,1-2.5,2.3-2.5h38.2c1.3,0,2.3,1.1,2.3,2.5V83.8z M132.1,129.4c0,1.4-1,2.5-2.3,2.5h-10.4
		c-1.3,0-2.3-1.1-2.3-2.5v-11.1c0-1.4,1.1-2.5,2.3-2.5h10.4c1.3,0,2.3,1.1,2.3,2.5V129.4L132.1,129.4z M132.1,96.6
		c0,1.4-1,2.5-2.3,2.5h-10.4c-1.3,0-2.3-1.1-2.3-2.5V85.4c0-1.4,1.1-2.5,2.3-2.5h10.4c1.3,0,2.3,1.1,2.3,2.5V96.6z M132.1,63.7
		c0,1.4-1,2.5-2.3,2.5h-10.4c-1.3,0-2.3-1.1-2.3-2.5V52.6c0-1.4,1.1-2.5,2.3-2.5h10.4c1.3,0,2.3,1.1,2.3,2.5V63.7z"/>
</g>
<g id="circle">
	<circle class="st1" cx="90" cy="90" r="82.9"/>
</g>
</svg>
