<?xml version="1.0" encoding="utf-8"?>
<!-- Generator: Adobe Illustrator 27.0.1, SVG Export Plug-In . SVG Version: 6.00 Build 0)  -->
<svg version="1.1" xmlns="http://www.w3.org/2000/svg" xmlns:xlink="http://www.w3.org/1999/xlink" x="0px" y="0px"
	 viewBox="0 0 180 180" style="enable-background:new 0 0 180 180;" xml:space="preserve">
<style type="text/css">
	.st0{fill:#CD1A1A;}
	.st1{fill:none;stroke:#CD1A1A;stroke-width:12;stroke-miterlimit:10;}
</style>
<g id="magnifying_glass_icon">
	<g>
		<path class="st0" d="M143.8,127.4l-28.6-26.3c5-7.5,7.8-16.6,7.4-26.3c-0.9-22.4-18.8-41-41.2-42.6c-26-1.9-48.1,18.7-47.7,44.4
			c0.4,25,20.2,44.8,44.5,44.5c9.6-0.1,18.5-3.1,25.8-8.3l28.9,26.6c3.2,3,8.2,2.8,11.2-0.3l0,0
			C147.2,135.7,147.1,130.5,143.8,127.4L143.8,127.4z M109.4,77.1c0,17.3-14,31.3-31.3,31.3s-31.3-14-31.3-31.3s14-31.3,31.3-31.3
			S109.4,59.8,109.4,77.1z"/>
		<path class="st0" d="M65.6,77.9V64.4c0-3.4,3.7-5.5,6.6-3.8l11.7,6.7l11.7,6.7c2.9,1.7,2.9,5.9,0,7.6l-11.7,6.7l-11.7,6.7
			c-2.9,1.7-6.6-0.4-6.6-3.8V77.9L65.6,77.9z"/>
	</g>
</g>
<g id="circle">
	<circle class="st1" cx="90" cy="90" r="82.9"/>
</g>
</svg>
