<?xml version="1.0" encoding="utf-8"?>
<!-- Generator: Adobe Illustrator 27.0.1, SVG Export Plug-In . SVG Version: 6.00 Build 0)  -->
<svg version="1.1" id="no_ads_icon" xmlns="http://www.w3.org/2000/svg" xmlns:xlink="http://www.w3.org/1999/xlink" x="0px"
	 y="0px" viewBox="0 0 180 180" style="enable-background:new 0 0 180 180;" xml:space="preserve">
<style type="text/css">
	.st0{enable-background:new    ;}
	.st1{fill:#CD1A1A;}
	.st2{fill:none;stroke:#CD1A1A;stroke-width:12;stroke-miterlimit:10;}
</style>
<g class="st0">
	<path class="st1" d="M67.6,108.7H45.5l-4.1,12.6H26.3l23.1-64.6H64l23.2,64.6H71.7L67.6,108.7z M63.3,95.2l-6.7-20.7l-6.7,20.7
		H63.3z"/>
	<path class="st1" d="M96.3,56.7h24.7c5.7,0,10.8,1.3,15.2,4c4.4,2.6,7.9,6.4,10.3,11.3c2.4,4.9,3.7,10.6,3.7,17.1
		c0,6.5-1.2,12.2-3.7,17.1c-2.4,4.9-5.9,8.6-10.3,11.3c-4.4,2.6-9.5,4-15.2,4H96.3V56.7z M120.5,106.7c4.5,0,8.1-1.6,10.8-4.7
		c2.7-3.1,4.1-7.5,4.1-13s-1.4-9.9-4.1-13c-2.7-3.1-6.3-4.7-10.8-4.7h-9.3v35.4H120.5z"/>
</g>
<circle class="st2" cx="90" cy="90" r="82.9"/>
<line class="st2" x1="144.4" y1="31.5" x2="38.5" y2="148.8"/>
</svg>
