<?xml version="1.0" encoding="utf-8"?>
<!-- Generator: Adobe Illustrator 27.0.1, SVG Export Plug-In . SVG Version: 6.00 Build 0)  -->
<svg version="1.1" xmlns="http://www.w3.org/2000/svg" xmlns:xlink="http://www.w3.org/1999/xlink" x="0px" y="0px"
	 viewBox="0 0 180 180" style="enable-background:new 0 0 180 180;" xml:space="preserve">
<style type="text/css">
	.st0{fill:#CD1A1A;}
	.st1{fill:none;stroke:#CD1A1A;stroke-width:12;stroke-miterlimit:10;}
</style>
<g id="paste_icon">
	<g>
		<path class="st0" d="M126.7,48.3c-2.4-7.4-7.5-13.9-15-17.7c-14.9-7.7-33.2-1.9-40.9,13L56,72.2c-7.7,14.9-1.9,33.2,13,40.9
			c14.9,7.7,33.2,1.9,40.9-13l14.9-28.7C128.5,64,129,55.7,126.7,48.3z M101.6,93.1c-5,9.7-17,13.5-26.7,8.5
			c-9.7-5-13.5-17-8.5-26.7l12.6-24.4c5-9.7,17-13.5,26.7-8.5c4.9,2.5,8.2,6.8,9.8,11.6c1.5,4.8,1.2,10.3-1.3,15.1L101.6,93.1z"/>
		<path class="st0" d="M129.9,84.7c-2.4-7.4-7.5-13.9-15-17.7c-14.9-7.7-33.2-1.9-40.9,13l-14.9,28.7c-7.7,14.9-1.9,33.2,13,40.9
			c14.9,7.7,33.2,1.9,40.9-13l14.9-28.7C131.8,100.4,132.2,92.1,129.9,84.7z M104.8,129.5c-5,9.7-17,13.5-26.7,8.5
			c-9.7-5-13.5-17-8.5-26.7l12.6-24.4c5-9.7,17-13.5,26.7-8.5c4.9,2.5,8.2,6.8,9.8,11.6c1.5,4.8,1.2,10.3-1.3,15.1L104.8,129.5z"/>
	</g>
</g>
<g id="circle">
	<circle class="st1" cx="90" cy="90" r="82.9"/>
</g>
</svg>
