<?xml version="1.0" encoding="utf-8"?>
<!-- Generator: Adobe Illustrator 27.0.1, SVG Export Plug-In . SVG Version: 6.00 Build 0)  -->
<svg version="1.1" id="Layer_1" xmlns="http://www.w3.org/2000/svg" xmlns:xlink="http://www.w3.org/1999/xlink" x="0px" y="0px"
	 viewBox="0 0 180 180" style="enable-background:new 0 0 180 180;" xml:space="preserve">
<style type="text/css">
	.st0{fill:#CD1A1A;}
	.st1{enable-background:new    ;}
	.st2{fill:#FFFFFF;}
	.st3{fill:none;stroke:#CD1A1A;stroke-width:12;stroke-miterlimit:10;}
</style>
<path class="st0" d="M43,59.9h94c6.7,0,12.2,5.6,12.2,12.5v39.1c0,6.9-5.5,12.5-12.2,12.5H43c-6.7,0-12.2-5.6-12.2-12.5V72.4
	C30.8,65.5,36.2,59.9,43,59.9z"/>
<g class="st1">
	<path class="st2" d="M40.6,87.7c-1.3-0.3-2.4-0.7-3.2-1.3l1.8-4.2c0.8,0.5,1.7,0.8,2.6,1.1c1,0.3,1.9,0.4,2.8,0.4
		c0.8,0,1.3-0.1,1.6-0.2s0.5-0.4,0.5-0.7c0-0.4-0.2-0.6-0.6-0.8S45,81.7,44,81.5c-1.3-0.3-2.3-0.6-3.2-0.9s-1.6-0.8-2.2-1.6
		c-0.6-0.7-0.9-1.7-0.9-2.9c0-1.1,0.3-2,0.9-2.9c0.6-0.9,1.4-1.6,2.6-2.1c1.2-0.5,2.6-0.8,4.2-0.8c1.1,0,2.2,0.1,3.3,0.4
		c1.1,0.3,2.1,0.6,2.9,1.1L49.9,76c-1.6-0.8-3.1-1.3-4.6-1.3c-1.4,0-2.1,0.4-2.1,1.1c0,0.3,0.2,0.6,0.6,0.8c0.4,0.2,1.1,0.4,2.1,0.5
		c1.3,0.2,2.3,0.5,3.2,0.8s1.6,0.8,2.2,1.5c0.6,0.7,1,1.7,1,2.9c0,1.1-0.3,2-0.9,2.9c-0.6,0.9-1.4,1.6-2.6,2.1
		c-1.2,0.5-2.6,0.8-4.2,0.8C43.2,88.1,41.9,88,40.6,87.7z"/>
	<path class="st2" d="M67.6,83.4v4.3H53.9v-17h13.4v4.3h-7.9v2h7v4.1h-7v2.2H67.6z"/>
	<path class="st2" d="M81,84.8h-6.3l-1.1,3H68l7.2-17h5.5l7.2,17h-5.7L81,84.8z M79.5,80.7l-1.6-4.3l-1.6,4.3H79.5z"/>
	<path class="st2" d="M95.8,83.5h-1.5v4.3h-5.6v-17h7.9c1.5,0,2.8,0.3,4,0.8c1.1,0.5,2,1.3,2.6,2.2s0.9,2.1,0.9,3.4
		c0,1.2-0.3,2.3-0.8,3.2c-0.5,0.9-1.3,1.6-2.3,2.2l3.5,5.2h-5.9L95.8,83.5z M98,75.7c-0.4-0.3-0.9-0.5-1.7-0.5h-2v4h2
		c0.8,0,1.3-0.2,1.7-0.5s0.6-0.8,0.6-1.5C98.6,76.5,98.4,76.1,98,75.7z"/>
	<path class="st2" d="M110.1,87c-1.4-0.8-2.5-1.8-3.3-3.2c-0.8-1.4-1.2-2.9-1.2-4.6c0-1.7,0.4-3.2,1.2-4.6c0.8-1.4,1.9-2.4,3.3-3.2
		c1.4-0.8,3-1.1,4.7-1.1c1.6,0,3,0.3,4.3,0.9s2.3,1.4,3.1,2.5l-3.5,3.2c-1-1.3-2.2-2-3.6-2c-1.2,0-2.1,0.4-2.8,1.2
		c-0.7,0.8-1.1,1.8-1.1,3.1c0,1.3,0.4,2.3,1.1,3.1c0.7,0.8,1.6,1.2,2.8,1.2c1.4,0,2.6-0.7,3.6-2l3.5,3.2c-0.8,1.1-1.9,1.9-3.1,2.5
		s-2.7,0.9-4.3,0.9C113.1,88.1,111.5,87.8,110.1,87z"/>
	<path class="st2" d="M140,70.8v17h-5.6v-6.3h-5.1v6.3h-5.6v-17h5.6v6h5.1v-6H140z"/>
</g>
<g id="circle">
	<circle class="st3" cx="90" cy="90" r="82.9"/>
</g>
<g id="download-icon">
	<path class="st2" d="M88.9,111.4l5.2,7.6c0.7,1,2.1,1.3,3.1,0.6l6.7-4.6c1-0.7,1.3-2.1,0.6-3.1l-5.2-7.6l3.7-2.5
		c1.6-1.1,1.2-3.4-0.6-4l-7.3-2.2L86,92.9c-1.4-0.4-2.8,0.5-2.9,2l-0.8,9.5l-0.6,7.6c-0.2,1.9,1.9,3.1,3.5,2L88.9,111.4L88.9,111.4z
		"/>
</g>
</svg>
