<?xml version="1.0" encoding="utf-8"?>
<!-- Generator: Adobe Illustrator 27.0.1, SVG Export Plug-In . SVG Version: 6.00 Build 0)  -->
<svg version="1.1" xmlns="http://www.w3.org/2000/svg" xmlns:xlink="http://www.w3.org/1999/xlink" x="0px" y="0px"
	 viewBox="0 0 180 180" style="enable-background:new 0 0 180 180;" xml:space="preserve">
<style type="text/css">
	.st0{fill:#CD1A1A;}
	.st1{fill:#FFFFFF;}
	.st2{font-family:'Montserrat-Black';}
	.st3{font-size:24.2715px;}
	.st4{fill:none;stroke:#CD1A1A;stroke-width:12;stroke-miterlimit:10;}
</style>
<g id="search_icon">
	<path class="st0" d="M43,59.9H137c6.7,0,12.2,5.6,12.2,12.5v39.1c0,6.9-5.5,12.5-12.2,12.5H43c-6.7,0-12.2-5.6-12.2-12.5V72.4
		C30.8,65.5,36.2,59.9,43,59.9z"/>
	<text transform="matrix(0.97 0 0 1 37.1035 87.7529)" class="st1 st2 st3">SEARCH</text>
</g>
<g id="circle">
	<circle class="st4" cx="90" cy="90" r="82.9"/>
</g>
<g id="download-icon">
	<path class="st1" d="M88.9,111.4l5.2,7.6c0.7,1,2.1,1.3,3.1,0.6l6.7-4.6c1-0.7,1.3-2.1,0.6-3.1l-5.2-7.6l3.7-2.5
		c1.6-1.1,1.2-3.4-0.6-4l-7.3-2.2L86,92.9c-1.4-0.4-2.8,0.5-2.9,2l-0.8,9.5l-0.6,7.6c-0.2,1.9,1.9,3.1,3.5,2L88.9,111.4L88.9,111.4z
		"/>
</g>
</svg>
