<?xml version="1.0" encoding="utf-8"?>
<!-- Generator: Adobe Illustrator 27.0.1, SVG Export Plug-In . SVG Version: 6.00 Build 0)  -->
<svg version="1.1" xmlns="http://www.w3.org/2000/svg" xmlns:xlink="http://www.w3.org/1999/xlink" x="0px" y="0px"
	 viewBox="0 0 180 180" style="enable-background:new 0 0 180 180;" xml:space="preserve">
<style type="text/css">
	.st0{fill:#CD1A1A;}
	.st1{fill:none;stroke:#CD1A1A;stroke-width:12;stroke-miterlimit:10;}
</style>
<g id="secure_icon">
	<path class="st0" d="M133.9,42.7c-7.6-1.9-16.7-3.1-25.9-6.6c-10.1-3.9-26.8-3.7-36.9,0.4c-9,3.6-17.9,5-25.3,7
		c-7.4,2-6,11.3-6,11.3s2.8,37.7,3.9,44c4.8,26.6,37.7,48.4,44.6,52.7c0.8,0.5,1.7,0.5,2.5,0c6.9-4.2,40.3-25.6,45.3-52.6
		c1.2-6.3,4-44.7,4-44.7S141.5,44.6,133.9,42.7z M127.8,66.1c-6,3.3-9.9,6.9-21.8,23.2c-5,6.8-17.6,32.1-17.6,32.1
		c-1.6,2.1-4,3.3-6.5,3.3h-1.3c-1.4,0-2.7-0.6-3.7-1.6c0,0-7.2-8.9-15.9-15.8c-3.8-3-4-8.8-0.5-12.2c5-5.9,11.4-1,13.4,0.6l7.1,6.9
		c0,0,10.4-18.2,14.2-23.6c19.8-28.1,29.9-22.3,29.9-22.3c1.2,0,2.2,1,2.8,2.3C129.5,62.2,130.8,64.4,127.8,66.1z"/>
</g>
<g id="circle">
	<circle class="st1" cx="90" cy="90" r="82.9"/>
</g>
</svg>
