<?xml version="1.0" encoding="utf-8"?>
<!-- Generator: Adobe Illustrator 27.0.1, SVG Export Plug-In . SVG Version: 6.00 Build 0)  -->
<svg version="1.1" xmlns="http://www.w3.org/2000/svg" xmlns:xlink="http://www.w3.org/1999/xlink" x="0px" y="0px"
	 viewBox="0 0 180 180" style="enable-background:new 0 0 180 180;" xml:space="preserve">
<style type="text/css">
	.st0{fill:none;stroke:#CD1A1A;stroke-width:12;stroke-miterlimit:10;}
	.st1{fill:#CD1A1A;}
	.st2{display:none;}
	.st3{display:inline;fill:#CD1A1A;}
	.st4{display:inline;fill:none;stroke:#CD1A1A;stroke-width:12;stroke-miterlimit:10;}
	.st5{font-family:'Montserrat-ExtraBold';}
	.st6{font-size:29.39px;}
	.st7{letter-spacing:4.1;}
	.st8{letter-spacing:5.2;}
</style>
<g id="ytb_logo_icon_x5F_test">
	<path class="st0" d="M127.1,151.5H52.9c-7.2,0-13.4-4.6-15.3-11.2L6.9,32.1C4.2,22.5,11.8,13,22.2,13h135.5
		c10.4,0,18,9.5,15.3,19.1l-30.6,108.1C140.5,146.9,134.3,151.5,127.1,151.5L127.1,151.5z"/>
	<path class="st1" d="M134.9,54.2c-8.9,2.1-25.7,0.8-34.7-0.6C72.2,49.2,55.7,42.5,45,37.5c-8.4-3.9-18,3.2-16,12.1
		c0,0.2,0.1,0.4,0.1,0.6L50,127.6c1.4,5.1,6.2,8.6,11.6,8.6h56.1c5.4,0,10.1-3.5,11.6-8.6l16.1-58.1C147.3,62.8,143,52.2,134.9,54.2
		L134.9,54.2z M121.6,92.5l-19,15.9l-19,15.9c-4.9,4.1-12.3,1.1-13.4-5.5l-4.1-25.4L62,68.1c-1.1-6.5,5-11.7,11-9.2l23.1,9.4
		l23.1,9.4C125.2,80.2,126.5,88.4,121.6,92.5L121.6,92.5z"/>
	<path class="st1" d="M98.1,88.4l0.3-12.9c0-1.5-1.1-2.7-2.6-2.8l-11.4-0.3c-1.5,0-2.7,1.1-2.7,2.6l-0.3,12.9l-6.6-0.2
		c-2.2-0.1-3.5,2.5-2.2,4.3l6.5,8.8l7.9,10.6c1,1.4,3,1.4,4.1,0.1l8.4-10.1l7-8.4c1.4-1.7,0.3-4.4-1.9-4.5L98.1,88.4L98.1,88.4z"/>
</g>
<g id="Layer_5">
	<path class="st1" d="M135.7,172.1H43.5c-3.7,0-6.2-3.3-4.8-6.3l5-10.7c0.8-1.7,2.7-2.8,4.8-2.8h82.1c2.1,0,4,1.1,4.8,2.8l5,10.7
		C141.9,168.8,139.4,172.1,135.7,172.1z"/>
</g>
<g id="Layer_4" class="st2">
	<path class="st3" d="M149.8,171.3l-6.6-16.4c-0.5-1.2-1.2-5.6-2-5.6H38.7c-0.8,0-1.5,4.4-2,5.6l-6.6,16.4c-1.2,3.1-0.1,7.7,2,7.7
		h115.7C149.9,178.9,151,174.4,149.8,171.3z M53.3,168.7l-1.2,6.2h-5.8l1.2-6.3l-4.3-10.9H49l2.3,6l4.8-6H62L53.3,168.7z
		 M98.3,162.2h-5l-2.5,12.7h-5.8l2.5-12.7h-5l0.9-4.5h15.9L98.3,162.2z M135.7,169.7c0,3.8-3.6,5.5-8,5.5h-9.9l3.5-17.2h9.1
		c4.1,0,6.2,1.5,6.2,4.1c0,2-1.2,3.4-3.1,4.3C134.9,167,135.7,168.1,135.7,169.7z M128.9,162h-2.8l-0.5,2.6h3c1.3,0,1.9-0.6,1.9-1.5
		C130.4,162.4,129.9,162,128.9,162z M128.5,168.4h-3.7l-0.5,2.7h3.7c1.1,0,2-0.5,2-1.6C130,168.8,129.3,168.4,128.5,168.4z"/>
</g>
<g id="ytb_logo_icon_copy" class="st2">
	<path class="st4" d="M114.6,132.2H49.7c-6.3,0-11.7-4-13.4-9.8L9.5,27.9c-2.4-8.4,4.2-16.7,13.4-16.7h118.5
		c9.1,0,15.8,8.3,13.4,16.7l-26.8,94.6C126.3,128.2,120.8,132.2,114.6,132.2L114.6,132.2z"/>
	<path class="st3" d="M121.4,47.1c-7.8,1.8-22.5,0.7-30.3-0.5c-24.6-3.9-38.9-9.7-48.3-14.1c-7.3-3.4-15.7,2.8-14,10.5
		c0,0.2,0.1,0.4,0.1,0.5l18.3,67.7c1.2,4.4,5.4,7.5,10.1,7.5h49.1c4.7,0,8.9-3.1,10.1-7.5l14.1-50.8
		C132.2,54.7,128.5,45.5,121.4,47.1L121.4,47.1z M109.8,80.6L93.2,94.6l-16.6,13.9c-4.3,3.6-10.8,0.9-11.7-4.8l-3.6-22.2l-3.6-22.2
		c-0.9-5.7,4.4-10.2,9.6-8.1l20.2,8.3l20.2,8.3C112.9,69.9,114,77,109.8,80.6L109.8,80.6z"/>
	<path class="st3" d="M89.2,77l0.3-11.3c0-1.3-1-2.4-2.2-2.4L77.3,63c-1.3,0-2.3,1-2.4,2.3l-0.3,11.3l-5.8-0.2
		c-1.9-0.1-3.1,2.2-1.9,3.8l5.7,7.7l6.9,9.3c0.9,1.2,2.6,1.2,3.6,0.1l7.4-8.9l6.1-7.3c1.3-1.5,0.2-3.8-1.7-3.9L89.2,77L89.2,77z"/>
</g>
<g id="Layer_2" class="st2">
	<path class="st4" d="M152.5,50.4c0,0,29.8-3.2,13.7,27.1c-16.1,30.3-11,35.6-33.8,35.6L152.5,50.4L152.5,50.4z"/>
	<text transform="matrix(0.97 0 0 1 48.5 160.9102)" class="st3 st5 st6 st7">Y</text>
	<text transform="matrix(0.97 0 0 1 73.3032 160.9102)" class="st3 st5 st6 st8">TB</text>
	<path class="st4" d="M123.7,168.9H40.1c-6.6,0-11.2-6.2-9-12.2l5.9-15.9c1.9-5.1,7-8.6,12.7-8.6h64.5c5.7,0,10.8,3.4,12.7,8.6
		l5.9,15.9C134.9,162.6,130.2,168.9,123.7,168.9L123.7,168.9z"/>
</g>
</svg>
